<svg width="16" height="16" viewBox="0 0 16 16" fill="none" xmlns="http://www.w3.org/2000/svg">
<path d="M11.33 9.33333L13.33 11.5333C13.4213 11.6265 13.4833 11.7445 13.5083 11.8725C13.5332 12.0006 13.5201 12.1332 13.4704 12.2539C13.4207 12.3746 13.3367 12.478 13.2288 12.5514C13.1209 12.6247 12.9938 12.6648 12.8633 12.6667H3.12996C2.99947 12.6648 2.8724 12.6247 2.76448 12.5514C2.65657 12.478 2.57256 12.3746 2.52287 12.2539C2.47318 12.1332 2.46 12.0006 2.48497 11.8725C2.50993 11.7445 2.57193 11.6265 2.66329 11.5333L4.66329 9.33333H4.46329C4.33281 9.3315 4.20573 9.29141 4.09782 9.21804C3.9899 9.14467 3.90589 9.04123 3.8562 8.92057C3.80652 8.7999 3.79334 8.6673 3.8183 8.53921C3.84326 8.41113 3.90526 8.29318 3.99663 8.2L5.99663 6H5.86329C5.72712 6.01228 5.59047 5.9824 5.47186 5.91441C5.35324 5.84642 5.2584 5.7436 5.20018 5.61989C5.14197 5.49619 5.1232 5.35757 5.14641 5.22284C5.16962 5.0881 5.2337 4.96376 5.32996 4.86667L7.99663 2L10.6633 4.86667C10.7595 4.96376 10.8236 5.0881 10.8468 5.22284C10.8701 5.35757 10.8513 5.49619 10.7931 5.61989C10.7349 5.7436 10.64 5.84642 10.5214 5.91441C10.4028 5.9824 10.2661 6.01228 10.13 6H9.99663L11.9966 8.2C12.088 8.29318 12.15 8.41113 12.175 8.53921C12.1999 8.6673 12.1867 8.7999 12.137 8.92057C12.0874 9.04123 12.0034 9.14467 11.8954 9.21804C11.7875 9.29141 11.6604 9.3315 11.53 9.33333H11.33Z" stroke="currentColor" stroke-width="1.33333" stroke-linecap="round" stroke-linejoin="round"/>
<path d="M8 14.667V12.667" stroke="currentColor" stroke-width="1.33333" stroke-linecap="round" stroke-linejoin="round"/>
</svg>
